<svg height="185.810004" viewBox="0 0 531 531" width="185.810004"
    xmlns="http://www.w3.org/2000/svg">
    <path
        d="m41.5 224.4c-22.9 0-41.5-18.5-41.5-41.5 0-22.9 18.6-41.5 41.5-41.5 23 0 41.6 18.6 41.6 41.5 0 23-18.6 41.5-41.6 41.5zm70.8 70.7c-23 0-41.6-18.5-41.6-41.5s18.6-41.5 41.6-41.5c22.9 0 41.5 18.5 41.5 41.5s-18.6 41.5-41.5 41.5zm70.7 70.7c-23 0-41.5-18.6-41.5-41.5 0-23 18.5-41.5 41.5-41.5s41.6 18.5 41.6 41.5c0 22.9-18.6 41.5-41.6 41.5zm0 141.3c-23 0-41.5-18.5-41.5-41.5 0-22.9 18.5-41.5 41.5-41.5s41.6 18.6 41.6 41.5c0 23-18.6 41.5-41.6 41.5zm70.7-70.6c-22.9 0-41.5-18.6-41.5-41.6 0-22.9 18.6-41.5 41.5-41.5 23 0 41.6 18.6 41.6 41.5 0 23-18.6 41.6-41.6 41.6zm70.8-70.7c-23 0-41.6-18.6-41.6-41.5 0-23 18.6-41.5 41.6-41.5 22.9 0 41.5 18.5 41.5 41.5 0 22.9-18.6 41.5-41.5 41.5z"
        fill="#4364a0" />
    <g fill="#939b50">
        <path
            d="m183 224.4c-23 0-41.5-18.5-41.5-41.5 0-22.9 18.5-41.5 41.5-41.5s41.6 18.6 41.6 41.5c0 23-18.6 41.5-41.6 41.5zm70.7-70.6c-22.9 0-41.5-18.6-41.5-41.6 0-22.9 18.6-41.5 41.5-41.5 23 0 41.6 18.6 41.6 41.5 0 23-18.6 41.6-41.6 41.6zm70.8 70.6c-23 0-41.6-18.5-41.6-41.5 0-22.9 18.6-41.5 41.6-41.5 22.9 0 41.5 18.6 41.5 41.5 0 23-18.6 41.5-41.5 41.5zm70.7 70.7c-23 0-41.6-18.5-41.6-41.5s18.6-41.5 41.6-41.5 41.6 18.5 41.6 41.5-18.6 41.5-41.6 41.5zm70.7 70.7c-23 0-41.5-18.6-41.5-41.5 0-23 18.5-41.5 41.5-41.5s41.6 18.5 41.6 41.5c0 22.9-18.6 41.5-41.6 41.5zm-141.4-282.7c-23 0-41.6-18.6-41.6-41.6 0-22.9 18.6-41.5 41.6-41.5 22.9 0 41.5 18.6 41.5 41.5 0 23-18.6 41.6-41.5 41.6z" />
        <path
            d="m396.7 388.1c-9.1 0-16.4-7.3-16.4-16.3 0-9.1 7.3-16.4 16.4-16.4s16.4 7.3 16.4 16.4c0 9-7.3 16.3-16.4 16.3zm13.7-16.3c0-7.9-6.1-14.2-13.7-14.2s-13.7 6.3-13.7 14.2c0 7.8 6.1 14.2 13.7 14.2s13.7-6.4 13.7-14.2zm-17.1 9.7h-2.7v-19.5h7.5c4.3 0 6.3 1.9 6.3 5.4s-2.2 5-4.5 5.4l5.4 8.7h-3l-5.3-8.7h-3.7zm3-10.8c2.6 0 5.4.1 5.4-3.3 0-2.8-2.2-3.1-4.2-3.1h-4.2v6.4z"
            fill-rule="evenodd" />
    </g>
</svg>